<svg width="23" height="23" viewBox="0 0 23 23" fill="none" xmlns="http://www.w3.org/2000/svg">
<path d="M12.1263 2.98292C11.8769 3.13912 11.6629 3.34584 11.4982 3.58977L7.1707 10.0121C5.41828 12.9437 6.09147 16.6166 8.73381 18.7538C11.3602 20.8787 15.1791 20.8787 17.8047 18.7538C20.447 16.6166 21.1202 12.9428 19.3925 10.0528L15.0411 3.58977C14.4024 2.63881 13.102 2.37254 12.1263 2.98292Z" fill="black" fill-opacity="0.4"/>
<path d="M8.58785 2.98292C8.33841 3.13912 8.12445 3.34584 7.95977 3.58977L3.63223 10.0121C1.87981 12.9437 2.553 16.6166 5.19535 18.7538C7.82177 20.8787 11.6407 20.8787 14.2662 18.7538C16.9085 16.6166 17.5817 12.9428 15.8541 10.0528L11.5027 3.58977C10.864 2.63881 9.56358 2.37254 8.58785 2.98292Z" fill="black"/>
</svg>
