<svg width="24" height="24" viewBox="0 0 24 24" fill="none" xmlns="http://www.w3.org/2000/svg">
<path d="M6.657 18C4.085 18 2 15.993 2 13.517C2 11.042 4.085 9.03501 6.657 9.03501C7.05 7.27301 8.451 5.83501 10.332 5.26201C12.212 4.69001 14.288 5.06901 15.776 6.26201C17.264 7.45201 17.938 9.26901 17.546 11.031H18.536C20.449 11.031 22 12.591 22 14.517C22 16.444 20.449 18.004 18.535 18.004H6.657" stroke="black" stroke-width="2" stroke-linecap="round" stroke-linejoin="round"/>
<path d="M8.676 11.0926C8.60547 11.1367 8.54498 11.1952 8.49842 11.2641L7.27488 13.0799C6.77942 13.9088 6.96975 14.9472 7.71683 15.5515C8.4594 16.1523 9.53912 16.1523 10.2814 15.5515C11.0285 14.9472 11.2189 13.9085 10.7304 13.0914L9.50011 11.2641C9.31953 10.9953 8.95187 10.92 8.676 11.0926Z" fill="black"/>
<path d="M13.676 11.0926C13.6055 11.1367 13.545 11.1952 13.4984 11.2641L12.2749 13.0799C11.7794 13.9088 11.9698 14.9472 12.7168 15.5515C13.4594 16.1523 14.5391 16.1523 15.2814 15.5515C16.0285 14.9472 16.2189 13.9085 15.7304 13.0914L14.5001 11.2641C14.3195 10.9953 13.9519 10.92 13.676 11.0926Z" fill="black"/>
</svg>
