<svg width="15" height="22" viewBox="0 0 15 22" fill="none" xmlns="http://www.w3.org/2000/svg">
<path d="M3.16667 12.625C2.34055 13.102 1.6949 13.8382 1.32986 14.7195C0.96481 15.6008 0.900765 16.5779 1.14766 17.4993C1.39455 18.4207 1.93858 19.2349 2.69537 19.8156C3.45216 20.3963 4.37942 20.7111 5.33334 20.7111C6.28725 20.7111 7.21451 20.3963 7.9713 19.8156C8.72809 19.2349 9.27212 18.4207 9.51902 17.4993C9.76591 16.5779 9.70186 15.6008 9.33681 14.7195C8.97177 13.8382 8.32612 13.102 7.5 12.625V3.41667C7.5 2.84203 7.27173 2.29093 6.8654 1.8846C6.45907 1.47827 5.90797 1.25 5.33334 1.25C4.7587 1.25 4.2076 1.47827 3.80127 1.8846C3.39494 2.29093 3.16667 2.84203 3.16667 3.41667V12.625Z" stroke="#0EA5E9" stroke-linecap="round" stroke-linejoin="round"/>
<circle cx="12.3333" cy="4" r="1.5" stroke="#0EA5E9"/>
<path d="M8.37482 16.5C8.37482 18.1569 7.03168 19.5 5.37482 19.5C3.71797 19.5 2.37482 18.1569 2.37482 16.5C2.37482 14.8431 3.71797 13.5 5.37482 13.5C7.03168 13.5 8.37482 14.8431 8.37482 16.5Z" fill="#0EA5E9"/>
<path d="M4.33334 10C4.33334 9.44772 4.78106 9 5.33334 9C5.88563 9 6.33334 9.44772 6.33334 10V14H4.33334V10Z" fill="#0EA5E9"/>
</svg>
