<svg width="24" height="25" viewBox="0 0 24 25" fill="none" xmlns="http://www.w3.org/2000/svg">
<path d="M3 13H4M20 13H21M5.6 6.59998L6.3 7.29998M18.4 6.59998L17.7 7.29998M8 13C8 11.9391 8.42143 10.9217 9.17157 10.1715C9.92172 9.4214 10.9391 8.99998 12 8.99998C13.0609 8.99998 14.0783 9.4214 14.8284 10.1715C15.5786 10.9217 16 11.9391 16 13" stroke="black" stroke-width="2" stroke-linecap="round" stroke-linejoin="round"/>
<path d="M12 2V1" stroke="black" stroke-width="2" stroke-linecap="round" stroke-linejoin="round"/>
<path d="M13 17L15 22H16L18 17" stroke="black" stroke-width="2" stroke-linecap="round" stroke-linejoin="round"/>
<path d="M6 17V20C6 20.5304 6.21071 21.0391 6.58579 21.4142C6.96086 21.7893 7.46957 22 8 22C8.53043 22 9.03914 21.7893 9.41421 21.4142C9.78929 21.0391 10 20.5304 10 20V17" stroke="black" stroke-width="2" stroke-linecap="round" stroke-linejoin="round"/>
</svg>
