<svg width="24" height="24" viewBox="0 0 24 24" fill="none" xmlns="http://www.w3.org/2000/svg">
<path d="M5 7.99997H13.5C13.9644 8.00886 14.4222 7.88817 14.8218 7.65146C15.2215 7.41474 15.5473 7.07135 15.7627 6.6598C15.9782 6.24825 16.0747 5.78483 16.0414 5.3215C16.0082 4.85818 15.8465 4.41328 15.5745 4.0367C15.3026 3.66013 14.931 3.36677 14.5017 3.18954C14.0723 3.01231 13.602 2.95822 13.1436 3.03332C12.6852 3.10843 12.2568 3.30976 11.9064 3.61474C11.5561 3.91973 11.2976 4.3163 11.16 4.75997" stroke="black" stroke-width="2" stroke-linecap="round" stroke-linejoin="round"/>
<path d="M3 12H18.5C18.9644 11.9911 19.4222 12.1118 19.8218 12.3485C20.2215 12.5852 20.5473 12.9286 20.7627 13.3401C20.9782 13.7517 21.0747 14.2151 21.0414 14.6784C21.0082 15.1418 20.8465 15.5867 20.5745 15.9632C20.3026 16.3398 19.931 16.6332 19.5017 16.8104C19.0723 16.9876 18.602 17.0417 18.1436 16.9666C17.6852 16.8915 17.2568 16.6902 16.9064 16.3852C16.5561 16.0802 16.2976 15.6836 16.16 15.24" stroke="black" stroke-width="2" stroke-linecap="round" stroke-linejoin="round"/>
<path d="M4 16H9.5C9.96443 15.9911 10.4222 16.1118 10.8218 16.3485C11.2215 16.5852 11.5473 16.9286 11.7627 17.3401C11.9782 17.7517 12.0747 18.2151 12.0414 18.6784C12.0082 19.1418 11.8465 19.5867 11.5745 19.9632C11.3026 20.3398 10.931 20.6332 10.5017 20.8104C10.0723 20.9876 9.60203 21.0417 9.14362 20.9666C8.68522 20.8915 8.2568 20.6902 7.90643 20.3852C7.55605 20.0802 7.29758 19.6836 7.16 19.24" stroke="black" stroke-width="2" stroke-linecap="round" stroke-linejoin="round"/>
</svg>
